<?xml version="1.0" encoding="utf-8"?>
<!-- Generator: Adobe Illustrator 23.0.2, SVG Export Plug-In . SVG Version: 6.00 Build 0)  -->
<svg version="1.1" id="https:_www.flaticon.com_free-icon_verified_907830_term_check_page_1_position_15"
	 xmlns="http://www.w3.org/2000/svg" xmlns:xlink="http://www.w3.org/1999/xlink" x="0px" y="0px" viewBox="0 0 16.1 16.1"
	 style="enable-background:new 0 0 16.1 16.1;" xml:space="preserve">
<style type="text/css">
	.st0{fill:#00743C;}
</style>
<path class="st0" d="M13.8,6.8c-0.2-1-3.8-8.5-5.1-6.1c-0.9,0.1-1.2-0.8-2-0.7c-1.1,0.2-2,1.3-2.6,2.2C3,4,2.4,6.2,2.2,8.3
	c-0.3,2.9,1.1,7.9,5,7.7C11.5,15.8,14.6,10.9,13.8,6.8z M8.4,3.7c-0.6,0.5,0,0.7,0,0.7C7.8,4.9,8.2,5.3,8.2,5.3
	C7.7,5.6,7.9,6.2,7.9,6.2C7.5,6.5,7.7,6.7,7.7,6.7c0,0,0,0,0,0c-1.7,4.8,0,6.9,0,7.1c0,0.2-1,0.2-1,0.2c-0.3-0.1-0.1-0.8-0.1-0.8
	c0-0.3-0.2-0.8-0.2-0.8c0.3-0.3,0-0.6,0-0.6c-0.2,0-0.2-0.3-0.2-0.3c0.3-0.4,0.1-0.4,0.1-0.4c-0.5-0.2-0.2-0.5-0.2-0.5
	c0.4-0.3,0-0.5,0-0.5C5.8,10,6,9.7,6,9.7c0.4-0.3,0.1-0.5,0.1-0.5c-0.3-0.3,0-0.6,0-0.6c0.4-0.1,0.1-0.5,0.1-0.5
	c-0.2-0.2,0-0.5,0-0.5c0.4-0.1,0.2-0.5,0.2-0.5c-0.3-0.3,0-0.5,0-0.5c0.3-0.1,0.2-0.4,0.2-0.4c-0.4-0.4,0-0.6,0-0.6
	C7,5.4,6.5,5,6.5,5C6.5,4.9,6.8,4.7,6.8,4.7c0.1-0.2-0.3-0.6-0.3-0.6c0.6-0.4,0-0.9,0-0.9C7.1,3,6.7,2.5,6.7,2.5
	C7.4,2.3,7,1.9,7,1.9c1.3-0.9,1.6,0,1.6,0c-0.3,0.8,0.1,1,0.1,1C7.9,3.4,8.4,3.7,8.4,3.7z"/>
</svg>
